0
SECTION
2
HEADER
9
$INSUNITS
70
1
0
ENDSEC
0
SECTION
2
TABLES
0
TABLE
2
LAYER
70
12
0
LAYER
2
DTP15
70
0
62
6
6
CONTINUOUS
0
LAYER
2
DTP16
70
0
62
2
6
CONTINUOUS
0
LAYER
2
FORMED_EDGE
70
0
62
6
6
CONTINUOUS
0
LAYER
2
LABELS
70
0
62
3
6
CONTINUOUS
0
LAYER
2
MD_ARROW
70
0
62
2
6
CONTINUOUS
0
LAYER
2
SHEET
70
0
62
7
6
CONTINUOUS
0
LAYER
2
STP308
70
0
62
2
6
CONTINUOUS
0
LAYER
2
STP308_SCORE
70
0
62
1
6
CONTINUOUS
0
LAYER
2
STP311
70
0
62
4
6
CONTINUOUS
0
LAYER
2
STP312
70
0
62
5
6
CONTINUOUS
0
LAYER
2
STP315
70
0
62
5
6
CONTINUOUS
0
LAYER
2
STP318
70
0
62
4
6
CONTINUOUS
0
ENDTAB
0
ENDSEC
0
SECTION
2
ENTITIES
0
LINE
8
SHEET
10
0.0000
20
0.0000
30
0.0
11
48.0000
21
0.0000
31
0.0
0
LINE
8
SHEET
10
48.0000
20
0.0000
30
0.0
11
48.0000
21
96.0000
31
0.0
0
LINE
8
SHEET
10
48.0000
20
96.0000
30
0.0
11
0.0000
21
96.0000
31
0.0
0
LINE
8
SHEET
10
0.0000
20
96.0000
30
0.0
11
0.0000
21
0.0000
31
0.0
0
LINE
8
STP311
10
0.0000
20
90.0000
30
0.0
11
6.0000
21
90.0000
31
0.0
0
LINE
8
STP311
10
6.0000
20
90.0000
30
0.0
11
6.0000
21
96.0000
31
0.0
0
LINE
8
STP311
10
6.0000
20
96.0000
30
0.0
11
0.0000
21
96.0000
31
0.0
0
LINE
8
STP311
10
0.0000
20
96.0000
30
0.0
11
0.0000
21
90.0000
31
0.0
0
TEXT
8
LABELS
10
0.1500
20
95.5500
30
0.0
40
0.2500
1
STP311-1
0
LINE
8
STP311
10
7.0000
20
90.0000
30
0.0
11
13.0000
21
90.0000
31
0.0
0
LINE
8
STP311
10
13.0000
20
90.0000
30
0.0
11
13.0000
21
96.0000
31
0.0
0
LINE
8
STP311
10
13.0000
20
96.0000
30
0.0
11
7.0000
21
96.0000
31
0.0
0
LINE
8
STP311
10
7.0000
20
96.0000
30
0.0
11
7.0000
21
90.0000
31
0.0
0
TEXT
8
LABELS
10
7.1500
20
95.5500
30
0.0
40
0.2500
1
STP311-2
0
LINE
8
STP311
10
14.0000
20
90.0000
30
0.0
11
20.0000
21
90.0000
31
0.0
0
LINE
8
STP311
10
20.0000
20
90.0000
30
0.0
11
20.0000
21
96.0000
31
0.0
0
LINE
8
STP311
10
20.0000
20
96.0000
30
0.0
11
14.0000
21
96.0000
31
0.0
0
LINE
8
STP311
10
14.0000
20
96.0000
30
0.0
11
14.0000
21
90.0000
31
0.0
0
TEXT
8
LABELS
10
14.1500
20
95.5500
30
0.0
40
0.2500
1
STP311-3
0
LINE
8
STP311
10
21.0000
20
90.0000
30
0.0
11
27.0000
21
90.0000
31
0.0
0
LINE
8
STP311
10
27.0000
20
90.0000
30
0.0
11
27.0000
21
96.0000
31
0.0
0
LINE
8
STP311
10
27.0000
20
96.0000
30
0.0
11
21.0000
21
96.0000
31
0.0
0
LINE
8
STP311
10
21.0000
20
96.0000
30
0.0
11
21.0000
21
90.0000
31
0.0
0
TEXT
8
LABELS
10
21.1500
20
95.5500
30
0.0
40
0.2500
1
STP311-4
0
LINE
8
STP311
10
28.0000
20
90.0000
30
0.0
11
34.0000
21
90.0000
31
0.0
0
LINE
8
STP311
10
34.0000
20
90.0000
30
0.0
11
34.0000
21
96.0000
31
0.0
0
LINE
8
STP311
10
34.0000
20
96.0000
30
0.0
11
28.0000
21
96.0000
31
0.0
0
LINE
8
STP311
10
28.0000
20
96.0000
30
0.0
11
28.0000
21
90.0000
31
0.0
0
TEXT
8
LABELS
10
28.1500
20
95.5500
30
0.0
40
0.2500
1
STP311-5
0
LINE
8
STP311
10
35.0000
20
90.0000
30
0.0
11
41.0000
21
90.0000
31
0.0
0
LINE
8
STP311
10
41.0000
20
90.0000
30
0.0
11
41.0000
21
96.0000
31
0.0
0
LINE
8
STP311
10
41.0000
20
96.0000
30
0.0
11
35.0000
21
96.0000
31
0.0
0
LINE
8
STP311
10
35.0000
20
96.0000
30
0.0
11
35.0000
21
90.0000
31
0.0
0
TEXT
8
LABELS
10
35.1500
20
95.5500
30
0.0
40
0.2500
1
STP311-6
0
LINE
8
STP311
10
0.0000
20
83.0000
30
0.0
11
6.0000
21
83.0000
31
0.0
0
LINE
8
STP311
10
6.0000
20
83.0000
30
0.0
11
6.0000
21
89.0000
31
0.0
0
LINE
8
STP311
10
6.0000
20
89.0000
30
0.0
11
0.0000
21
89.0000
31
0.0
0
LINE
8
STP311
10
0.0000
20
89.0000
30
0.0
11
0.0000
21
83.0000
31
0.0
0
TEXT
8
LABELS
10
0.1500
20
88.5500
30
0.0
40
0.2500
1
STP311-7
0
LINE
8
STP311
10
7.0000
20
83.0000
30
0.0
11
13.0000
21
83.0000
31
0.0
0
LINE
8
STP311
10
13.0000
20
83.0000
30
0.0
11
13.0000
21
89.0000
31
0.0
0
LINE
8
STP311
10
13.0000
20
89.0000
30
0.0
11
7.0000
21
89.0000
31
0.0
0
LINE
8
STP311
10
7.0000
20
89.0000
30
0.0
11
7.0000
21
83.0000
31
0.0
0
TEXT
8
LABELS
10
7.1500
20
88.5500
30
0.0
40
0.2500
1
STP311-8
0
LINE
8
STP311
10
14.0000
20
83.0000
30
0.0
11
20.0000
21
83.0000
31
0.0
0
LINE
8
STP311
10
20.0000
20
83.0000
30
0.0
11
20.0000
21
89.0000
31
0.0
0
LINE
8
STP311
10
20.0000
20
89.0000
30
0.0
11
14.0000
21
89.0000
31
0.0
0
LINE
8
STP311
10
14.0000
20
89.0000
30
0.0
11
14.0000
21
83.0000
31
0.0
0
TEXT
8
LABELS
10
14.1500
20
88.5500
30
0.0
40
0.2500
1
STP311-9
0
LINE
8
STP311
10
21.0000
20
83.0000
30
0.0
11
27.0000
21
83.0000
31
0.0
0
LINE
8
STP311
10
27.0000
20
83.0000
30
0.0
11
27.0000
21
89.0000
31
0.0
0
LINE
8
STP311
10
27.0000
20
89.0000
30
0.0
11
21.0000
21
89.0000
31
0.0
0
LINE
8
STP311
10
21.0000
20
89.0000
30
0.0
11
21.0000
21
83.0000
31
0.0
0
TEXT
8
LABELS
10
21.1500
20
88.5500
30
0.0
40
0.2500
1
STP311-10
0
LINE
8
DTP16
10
4.0000
20
70.0000
30
0.0
11
10.0000
21
70.0000
31
0.0
0
LINE
8
DTP16
10
10.0000
20
70.0000
30
0.0
11
10.0000
21
76.0000
31
0.0
0
LINE
8
DTP16
10
10.0000
20
76.0000
30
0.0
11
4.0000
21
76.0000
31
0.0
0
LINE
8
DTP16
10
4.0000
20
76.0000
30
0.0
11
4.0000
21
70.0000
31
0.0
0
TEXT
8
LABELS
10
4.1500
20
75.5500
30
0.0
40
0.2500
1
DTP16-1
0
LINE
8
DTP16
10
11.0000
20
70.0000
30
0.0
11
17.0000
21
70.0000
31
0.0
0
LINE
8
DTP16
10
17.0000
20
70.0000
30
0.0
11
17.0000
21
76.0000
31
0.0
0
LINE
8
DTP16
10
17.0000
20
76.0000
30
0.0
11
11.0000
21
76.0000
31
0.0
0
LINE
8
DTP16
10
11.0000
20
76.0000
30
0.0
11
11.0000
21
70.0000
31
0.0
0
TEXT
8
LABELS
10
11.1500
20
75.5500
30
0.0
40
0.2500
1
DTP16-2
0
LINE
8
DTP16
10
18.0000
20
70.0000
30
0.0
11
24.0000
21
70.0000
31
0.0
0
LINE
8
DTP16
10
24.0000
20
70.0000
30
0.0
11
24.0000
21
76.0000
31
0.0
0
LINE
8
DTP16
10
24.0000
20
76.0000
30
0.0
11
18.0000
21
76.0000
31
0.0
0
LINE
8
DTP16
10
18.0000
20
76.0000
30
0.0
11
18.0000
21
70.0000
31
0.0
0
TEXT
8
LABELS
10
18.1500
20
75.5500
30
0.0
40
0.2500
1
DTP16-3
0
LINE
8
DTP16
10
25.0000
20
70.0000
30
0.0
11
31.0000
21
70.0000
31
0.0
0
LINE
8
DTP16
10
31.0000
20
70.0000
30
0.0
11
31.0000
21
76.0000
31
0.0
0
LINE
8
DTP16
10
31.0000
20
76.0000
30
0.0
11
25.0000
21
76.0000
31
0.0
0
LINE
8
DTP16
10
25.0000
20
76.0000
30
0.0
11
25.0000
21
70.0000
31
0.0
0
TEXT
8
LABELS
10
25.1500
20
75.5500
30
0.0
40
0.2500
1
DTP16-4
0
LINE
8
DTP16
10
32.0000
20
70.0000
30
0.0
11
38.0000
21
70.0000
31
0.0
0
LINE
8
DTP16
10
38.0000
20
70.0000
30
0.0
11
38.0000
21
76.0000
31
0.0
0
LINE
8
DTP16
10
38.0000
20
76.0000
30
0.0
11
32.0000
21
76.0000
31
0.0
0
LINE
8
DTP16
10
32.0000
20
76.0000
30
0.0
11
32.0000
21
70.0000
31
0.0
0
TEXT
8
LABELS
10
32.1500
20
75.5500
30
0.0
40
0.2500
1
DTP16-5
0
LINE
8
DTP16
10
4.0000
20
63.0000
30
0.0
11
10.0000
21
63.0000
31
0.0
0
LINE
8
DTP16
10
10.0000
20
63.0000
30
0.0
11
10.0000
21
69.0000
31
0.0
0
LINE
8
DTP16
10
10.0000
20
69.0000
30
0.0
11
4.0000
21
69.0000
31
0.0
0
LINE
8
DTP16
10
4.0000
20
69.0000
30
0.0
11
4.0000
21
63.0000
31
0.0
0
TEXT
8
LABELS
10
4.1500
20
68.5500
30
0.0
40
0.2500
1
DTP16-6
0
LINE
8
DTP16
10
11.0000
20
63.0000
30
0.0
11
17.0000
21
63.0000
31
0.0
0
LINE
8
DTP16
10
17.0000
20
63.0000
30
0.0
11
17.0000
21
69.0000
31
0.0
0
LINE
8
DTP16
10
17.0000
20
69.0000
30
0.0
11
11.0000
21
69.0000
31
0.0
0
LINE
8
DTP16
10
11.0000
20
69.0000
30
0.0
11
11.0000
21
63.0000
31
0.0
0
TEXT
8
LABELS
10
11.1500
20
68.5500
30
0.0
40
0.2500
1
DTP16-7
0
LINE
8
DTP16
10
18.0000
20
63.0000
30
0.0
11
24.0000
21
63.0000
31
0.0
0
LINE
8
DTP16
10
24.0000
20
63.0000
30
0.0
11
24.0000
21
69.0000
31
0.0
0
LINE
8
DTP16
10
24.0000
20
69.0000
30
0.0
11
18.0000
21
69.0000
31
0.0
0
LINE
8
DTP16
10
18.0000
20
69.0000
30
0.0
11
18.0000
21
63.0000
31
0.0
0
TEXT
8
LABELS
10
18.1500
20
68.5500
30
0.0
40
0.2500
1
DTP16-8
0
LINE
8
DTP16
10
25.0000
20
63.0000
30
0.0
11
31.0000
21
63.0000
31
0.0
0
LINE
8
DTP16
10
31.0000
20
63.0000
30
0.0
11
31.0000
21
69.0000
31
0.0
0
LINE
8
DTP16
10
31.0000
20
69.0000
30
0.0
11
25.0000
21
69.0000
31
0.0
0
LINE
8
DTP16
10
25.0000
20
69.0000
30
0.0
11
25.0000
21
63.0000
31
0.0
0
TEXT
8
LABELS
10
25.1500
20
68.5500
30
0.0
40
0.2500
1
DTP16-9
0
LINE
8
DTP16
10
32.0000
20
63.0000
30
0.0
11
38.0000
21
63.0000
31
0.0
0
LINE
8
DTP16
10
38.0000
20
63.0000
30
0.0
11
38.0000
21
69.0000
31
0.0
0
LINE
8
DTP16
10
38.0000
20
69.0000
30
0.0
11
32.0000
21
69.0000
31
0.0
0
LINE
8
DTP16
10
32.0000
20
69.0000
30
0.0
11
32.0000
21
63.0000
31
0.0
0
TEXT
8
LABELS
10
32.1500
20
68.5500
30
0.0
40
0.2500
1
DTP16-10
0
LINE
8
FORMED_EDGE
10
0.0000
20
96.0000
30
0.0
11
0.0000
21
0.0000
31
0.0
0
LINE
8
FORMED_EDGE
10
48.0000
20
96.0000
30
0.0
11
48.0000
21
0.0000
31
0.0
0
LINE
8
MD_ARROW
10
24.0000
20
8.0000
30
0.0
11
24.0000
21
88.0000
31
0.0
0
LINE
8
MD_ARROW
10
24.0000
20
88.0000
30
0.0
11
22.5000
21
85.0000
31
0.0
0
LINE
8
MD_ARROW
10
24.0000
20
88.0000
30
0.0
11
25.5000
21
85.0000
31
0.0
0
TEXT
8
LABELS
10
1.0000
20
93.0000
30
0.0
40
0.3000
1
FORMED EDGE
0
TEXT
8
LABELS
10
41.0000
20
93.0000
30
0.0
40
0.3000
1
FORMED EDGE
0
TEXT
8
MD_ARROW
10
25.0000
20
86.0000
30
0.0
40
0.4500
1
MD
0
TEXT
8
LABELS
10
1.0000
20
1.0000
30
0.0
40
0.3500
1
board3
0
ENDSEC
0
EOF