0
SECTION
2
HEADER
9
$INSUNITS
70
1
0
ENDSEC
0
SECTION
2
TABLES
0
TABLE
2
LAYER
70
12
0
LAYER
2
DTP15
70
0
62
6
6
CONTINUOUS
0
LAYER
2
DTP16
70
0
62
2
6
CONTINUOUS
0
LAYER
2
FORMED_EDGE
70
0
62
6
6
CONTINUOUS
0
LAYER
2
LABELS
70
0
62
3
6
CONTINUOUS
0
LAYER
2
MD_ARROW
70
0
62
2
6
CONTINUOUS
0
LAYER
2
SHEET
70
0
62
7
6
CONTINUOUS
0
LAYER
2
STP308
70
0
62
2
6
CONTINUOUS
0
LAYER
2
STP308_SCORE
70
0
62
1
6
CONTINUOUS
0
LAYER
2
STP311
70
0
62
4
6
CONTINUOUS
0
LAYER
2
STP312
70
0
62
5
6
CONTINUOUS
0
LAYER
2
STP315
70
0
62
5
6
CONTINUOUS
0
LAYER
2
STP318
70
0
62
4
6
CONTINUOUS
0
ENDTAB
0
ENDSEC
0
SECTION
2
ENTITIES
0
LINE
8
SHEET
10
0.0000
20
0.0000
30
0.0
11
48.0000
21
0.0000
31
0.0
0
LINE
8
SHEET
10
48.0000
20
0.0000
30
0.0
11
48.0000
21
96.0000
31
0.0
0
LINE
8
SHEET
10
48.0000
20
96.0000
30
0.0
11
0.0000
21
96.0000
31
0.0
0
LINE
8
SHEET
10
0.0000
20
96.0000
30
0.0
11
0.0000
21
0.0000
31
0.0
0
LINE
8
STP312
10
4.0000
20
76.0000
30
0.0
11
16.0000
21
76.0000
31
0.0
0
LINE
8
STP312
10
16.0000
20
76.0000
30
0.0
11
16.0000
21
92.0000
31
0.0
0
LINE
8
STP312
10
16.0000
20
92.0000
30
0.0
11
4.0000
21
92.0000
31
0.0
0
LINE
8
STP312
10
4.0000
20
92.0000
30
0.0
11
4.0000
21
76.0000
31
0.0
0
TEXT
8
LABELS
10
4.1500
20
91.5500
30
0.0
40
0.2500
1
STP312-CD-1
0
LINE
8
STP312
10
17.0000
20
76.0000
30
0.0
11
29.0000
21
76.0000
31
0.0
0
LINE
8
STP312
10
29.0000
20
76.0000
30
0.0
11
29.0000
21
92.0000
31
0.0
0
LINE
8
STP312
10
29.0000
20
92.0000
30
0.0
11
17.0000
21
92.0000
31
0.0
0
LINE
8
STP312
10
17.0000
20
92.0000
30
0.0
11
17.0000
21
76.0000
31
0.0
0
TEXT
8
LABELS
10
17.1500
20
91.5500
30
0.0
40
0.2500
1
STP312-CD-2
0
LINE
8
STP312
10
30.0000
20
76.0000
30
0.0
11
42.0000
21
76.0000
31
0.0
0
LINE
8
STP312
10
42.0000
20
76.0000
30
0.0
11
42.0000
21
92.0000
31
0.0
0
LINE
8
STP312
10
42.0000
20
92.0000
30
0.0
11
30.0000
21
92.0000
31
0.0
0
LINE
8
STP312
10
30.0000
20
92.0000
30
0.0
11
30.0000
21
76.0000
31
0.0
0
TEXT
8
LABELS
10
30.1500
20
91.5500
30
0.0
40
0.2500
1
STP312-CD-3
0
LINE
8
STP312
10
4.0000
20
59.0000
30
0.0
11
16.0000
21
59.0000
31
0.0
0
LINE
8
STP312
10
16.0000
20
59.0000
30
0.0
11
16.0000
21
75.0000
31
0.0
0
LINE
8
STP312
10
16.0000
20
75.0000
30
0.0
11
4.0000
21
75.0000
31
0.0
0
LINE
8
STP312
10
4.0000
20
75.0000
30
0.0
11
4.0000
21
59.0000
31
0.0
0
TEXT
8
LABELS
10
4.1500
20
74.5500
30
0.0
40
0.2500
1
STP312-CD-4
0
LINE
8
STP312
10
17.0000
20
59.0000
30
0.0
11
29.0000
21
59.0000
31
0.0
0
LINE
8
STP312
10
29.0000
20
59.0000
30
0.0
11
29.0000
21
75.0000
31
0.0
0
LINE
8
STP312
10
29.0000
20
75.0000
30
0.0
11
17.0000
21
75.0000
31
0.0
0
LINE
8
STP312
10
17.0000
20
75.0000
30
0.0
11
17.0000
21
59.0000
31
0.0
0
TEXT
8
LABELS
10
17.1500
20
74.5500
30
0.0
40
0.2500
1
STP312-CD-5
0
LINE
8
STP312
10
4.0000
20
46.0000
30
0.0
11
20.0000
21
46.0000
31
0.0
0
LINE
8
STP312
10
20.0000
20
46.0000
30
0.0
11
20.0000
21
58.0000
31
0.0
0
LINE
8
STP312
10
20.0000
20
58.0000
30
0.0
11
4.0000
21
58.0000
31
0.0
0
LINE
8
STP312
10
4.0000
20
58.0000
30
0.0
11
4.0000
21
46.0000
31
0.0
0
TEXT
8
LABELS
10
4.1500
20
57.5500
30
0.0
40
0.2500
1
STP312-MD-1
0
LINE
8
STP312
10
21.0000
20
46.0000
30
0.0
11
37.0000
21
46.0000
31
0.0
0
LINE
8
STP312
10
37.0000
20
46.0000
30
0.0
11
37.0000
21
58.0000
31
0.0
0
LINE
8
STP312
10
37.0000
20
58.0000
30
0.0
11
21.0000
21
58.0000
31
0.0
0
LINE
8
STP312
10
21.0000
20
58.0000
30
0.0
11
21.0000
21
46.0000
31
0.0
0
TEXT
8
LABELS
10
21.1500
20
57.5500
30
0.0
40
0.2500
1
STP312-MD-2
0
LINE
8
STP312
10
4.0000
20
33.0000
30
0.0
11
20.0000
21
33.0000
31
0.0
0
LINE
8
STP312
10
20.0000
20
33.0000
30
0.0
11
20.0000
21
45.0000
31
0.0
0
LINE
8
STP312
10
20.0000
20
45.0000
30
0.0
11
4.0000
21
45.0000
31
0.0
0
LINE
8
STP312
10
4.0000
20
45.0000
30
0.0
11
4.0000
21
33.0000
31
0.0
0
TEXT
8
LABELS
10
4.1500
20
44.5500
30
0.0
40
0.2500
1
STP312-MD-3
0
LINE
8
STP312
10
21.0000
20
33.0000
30
0.0
11
37.0000
21
33.0000
31
0.0
0
LINE
8
STP312
10
37.0000
20
33.0000
30
0.0
11
37.0000
21
45.0000
31
0.0
0
LINE
8
STP312
10
37.0000
20
45.0000
30
0.0
11
21.0000
21
45.0000
31
0.0
0
LINE
8
STP312
10
21.0000
20
45.0000
30
0.0
11
21.0000
21
33.0000
31
0.0
0
TEXT
8
LABELS
10
21.1500
20
44.5500
30
0.0
40
0.2500
1
STP312-MD-4
0
LINE
8
STP312
10
4.0000
20
20.0000
30
0.0
11
20.0000
21
20.0000
31
0.0
0
LINE
8
STP312
10
20.0000
20
20.0000
30
0.0
11
20.0000
21
32.0000
31
0.0
0
LINE
8
STP312
10
20.0000
20
32.0000
30
0.0
11
4.0000
21
32.0000
31
0.0
0
LINE
8
STP312
10
4.0000
20
32.0000
30
0.0
11
4.0000
21
20.0000
31
0.0
0
TEXT
8
LABELS
10
4.1500
20
31.5500
30
0.0
40
0.2500
1
STP312-MD-5
0
LINE
8
DTP15
10
44.0000
20
78.0000
30
0.0
11
47.5000
21
78.0000
31
0.0
0
LINE
8
DTP15
10
47.5000
20
78.0000
30
0.0
11
47.5000
21
92.0000
31
0.0
0
LINE
8
DTP15
10
47.5000
20
92.0000
30
0.0
11
44.0000
21
92.0000
31
0.0
0
LINE
8
DTP15
10
44.0000
20
92.0000
30
0.0
11
44.0000
21
78.0000
31
0.0
0
TEXT
8
LABELS
10
44.1500
20
91.5500
30
0.0
40
0.2500
1
DTP15-1
0
LINE
8
DTP15
10
44.0000
20
63.5000
30
0.0
11
47.5000
21
63.5000
31
0.0
0
LINE
8
DTP15
10
47.5000
20
63.5000
30
0.0
11
47.5000
21
77.5000
31
0.0
0
LINE
8
DTP15
10
47.5000
20
77.5000
30
0.0
11
44.0000
21
77.5000
31
0.0
0
LINE
8
DTP15
10
44.0000
20
77.5000
30
0.0
11
44.0000
21
63.5000
31
0.0
0
TEXT
8
LABELS
10
44.1500
20
77.0500
30
0.0
40
0.2500
1
DTP15-2
0
LINE
8
DTP15
10
44.0000
20
49.0000
30
0.0
11
47.5000
21
49.0000
31
0.0
0
LINE
8
DTP15
10
47.5000
20
49.0000
30
0.0
11
47.5000
21
63.0000
31
0.0
0
LINE
8
DTP15
10
47.5000
20
63.0000
30
0.0
11
44.0000
21
63.0000
31
0.0
0
LINE
8
DTP15
10
44.0000
20
63.0000
30
0.0
11
44.0000
21
49.0000
31
0.0
0
TEXT
8
LABELS
10
44.1500
20
62.5500
30
0.0
40
0.2500
1
DTP15-3
0
LINE
8
DTP15
10
44.0000
20
34.5000
30
0.0
11
47.5000
21
34.5000
31
0.0
0
LINE
8
DTP15
10
47.5000
20
34.5000
30
0.0
11
47.5000
21
48.5000
31
0.0
0
LINE
8
DTP15
10
47.5000
20
48.5000
30
0.0
11
44.0000
21
48.5000
31
0.0
0
LINE
8
DTP15
10
44.0000
20
48.5000
30
0.0
11
44.0000
21
34.5000
31
0.0
0
TEXT
8
LABELS
10
44.1500
20
48.0500
30
0.0
40
0.2500
1
DTP15-4
0
LINE
8
DTP15
10
44.0000
20
20.0000
30
0.0
11
47.5000
21
20.0000
31
0.0
0
LINE
8
DTP15
10
47.5000
20
20.0000
30
0.0
11
47.5000
21
34.0000
31
0.0
0
LINE
8
DTP15
10
47.5000
20
34.0000
30
0.0
11
44.0000
21
34.0000
31
0.0
0
LINE
8
DTP15
10
44.0000
20
34.0000
30
0.0
11
44.0000
21
20.0000
31
0.0
0
TEXT
8
LABELS
10
44.1500
20
33.5500
30
0.0
40
0.2500
1
DTP15-5
0
LINE
8
DTP15
10
44.0000
20
5.5000
30
0.0
11
47.5000
21
5.5000
31
0.0
0
LINE
8
DTP15
10
47.5000
20
5.5000
30
0.0
11
47.5000
21
19.5000
31
0.0
0
LINE
8
DTP15
10
47.5000
20
19.5000
30
0.0
11
44.0000
21
19.5000
31
0.0
0
LINE
8
DTP15
10
44.0000
20
19.5000
30
0.0
11
44.0000
21
5.5000
31
0.0
0
TEXT
8
LABELS
10
44.1500
20
19.0500
30
0.0
40
0.2500
1
DTP15-6
0
LINE
8
FORMED_EDGE
10
0.0000
20
96.0000
30
0.0
11
0.0000
21
0.0000
31
0.0
0
LINE
8
FORMED_EDGE
10
48.0000
20
96.0000
30
0.0
11
48.0000
21
0.0000
31
0.0
0
LINE
8
MD_ARROW
10
24.0000
20
8.0000
30
0.0
11
24.0000
21
88.0000
31
0.0
0
LINE
8
MD_ARROW
10
24.0000
20
88.0000
30
0.0
11
22.5000
21
85.0000
31
0.0
0
LINE
8
MD_ARROW
10
24.0000
20
88.0000
30
0.0
11
25.5000
21
85.0000
31
0.0
0
TEXT
8
LABELS
10
1.0000
20
93.0000
30
0.0
40
0.3000
1
FORMED EDGE
0
TEXT
8
LABELS
10
41.0000
20
93.0000
30
0.0
40
0.3000
1
FORMED EDGE
0
TEXT
8
MD_ARROW
10
25.0000
20
86.0000
30
0.0
40
0.4500
1
MD
0
TEXT
8
LABELS
10
1.0000
20
1.0000
30
0.0
40
0.3500
1
board2
0
ENDSEC
0
EOF