0
SECTION
2
HEADER
9
$INSUNITS
70
1
0
ENDSEC
0
SECTION
2
TABLES
0
TABLE
2
LAYER
70
12
0
LAYER
2
DTP15
70
0
62
6
6
CONTINUOUS
0
LAYER
2
DTP16
70
0
62
2
6
CONTINUOUS
0
LAYER
2
FORMED_EDGE
70
0
62
6
6
CONTINUOUS
0
LAYER
2
LABELS
70
0
62
3
6
CONTINUOUS
0
LAYER
2
MD_ARROW
70
0
62
2
6
CONTINUOUS
0
LAYER
2
SHEET
70
0
62
7
6
CONTINUOUS
0
LAYER
2
STP308
70
0
62
2
6
CONTINUOUS
0
LAYER
2
STP308_SCORE
70
0
62
1
6
CONTINUOUS
0
LAYER
2
STP311
70
0
62
4
6
CONTINUOUS
0
LAYER
2
STP312
70
0
62
5
6
CONTINUOUS
0
LAYER
2
STP315
70
0
62
5
6
CONTINUOUS
0
LAYER
2
STP318
70
0
62
4
6
CONTINUOUS
0
ENDTAB
0
ENDSEC
0
SECTION
2
ENTITIES
0
LINE
8
SHEET
10
0.0000
20
0.0000
30
0.0
11
48.0000
21
0.0000
31
0.0
0
LINE
8
SHEET
10
48.0000
20
0.0000
30
0.0
11
48.0000
21
96.0000
31
0.0
0
LINE
8
SHEET
10
48.0000
20
96.0000
30
0.0
11
0.0000
21
96.0000
31
0.0
0
LINE
8
SHEET
10
0.0000
20
96.0000
30
0.0
11
0.0000
21
0.0000
31
0.0
0
LINE
8
STP315
10
12.0000
20
72.0000
30
0.0
11
36.0000
21
72.0000
31
0.0
0
LINE
8
STP315
10
36.0000
20
72.0000
30
0.0
11
36.0000
21
84.0000
31
0.0
0
LINE
8
STP315
10
36.0000
20
84.0000
30
0.0
11
12.0000
21
84.0000
31
0.0
0
LINE
8
STP315
10
12.0000
20
84.0000
30
0.0
11
12.0000
21
72.0000
31
0.0
0
TEXT
8
LABELS
10
12.1500
20
83.5500
30
0.0
40
0.2500
1
STP315-1
0
LINE
8
STP315
10
12.0000
20
59.0000
30
0.0
11
36.0000
21
59.0000
31
0.0
0
LINE
8
STP315
10
36.0000
20
59.0000
30
0.0
11
36.0000
21
71.0000
31
0.0
0
LINE
8
STP315
10
36.0000
20
71.0000
30
0.0
11
12.0000
21
71.0000
31
0.0
0
LINE
8
STP315
10
12.0000
20
71.0000
30
0.0
11
12.0000
21
59.0000
31
0.0
0
TEXT
8
LABELS
10
12.1500
20
70.5500
30
0.0
40
0.2500
1
STP315-2
0
LINE
8
STP315
10
12.0000
20
46.0000
30
0.0
11
36.0000
21
46.0000
31
0.0
0
LINE
8
STP315
10
36.0000
20
46.0000
30
0.0
11
36.0000
21
58.0000
31
0.0
0
LINE
8
STP315
10
36.0000
20
58.0000
30
0.0
11
12.0000
21
58.0000
31
0.0
0
LINE
8
STP315
10
12.0000
20
58.0000
30
0.0
11
12.0000
21
46.0000
31
0.0
0
TEXT
8
LABELS
10
12.1500
20
57.5500
30
0.0
40
0.2500
1
STP315-3
0
LINE
8
STP315
10
12.0000
20
33.0000
30
0.0
11
36.0000
21
33.0000
31
0.0
0
LINE
8
STP315
10
36.0000
20
33.0000
30
0.0
11
36.0000
21
45.0000
31
0.0
0
LINE
8
STP315
10
36.0000
20
45.0000
30
0.0
11
12.0000
21
45.0000
31
0.0
0
LINE
8
STP315
10
12.0000
20
45.0000
30
0.0
11
12.0000
21
33.0000
31
0.0
0
TEXT
8
LABELS
10
12.1500
20
44.5500
30
0.0
40
0.2500
1
STP315-4
0
LINE
8
STP308
10
0.0000
20
85.7500
30
0.0
11
6.0000
21
85.7500
31
0.0
0
LINE
8
STP308
10
6.0000
20
85.7500
30
0.0
11
6.0000
21
90.0000
31
0.0
0
LINE
8
STP308
10
6.0000
20
90.0000
30
0.0
11
0.0000
21
90.0000
31
0.0
0
LINE
8
STP308
10
0.0000
20
90.0000
30
0.0
11
0.0000
21
85.7500
31
0.0
0
TEXT
8
LABELS
10
0.1500
20
89.5500
30
0.0
40
0.2500
1
STP308-1
0
LINE
8
STP308
10
0.0000
20
80.5000
30
0.0
11
6.0000
21
80.5000
31
0.0
0
LINE
8
STP308
10
6.0000
20
80.5000
30
0.0
11
6.0000
21
84.7500
31
0.0
0
LINE
8
STP308
10
6.0000
20
84.7500
30
0.0
11
0.0000
21
84.7500
31
0.0
0
LINE
8
STP308
10
0.0000
20
84.7500
30
0.0
11
0.0000
21
80.5000
31
0.0
0
TEXT
8
LABELS
10
0.1500
20
84.3000
30
0.0
40
0.2500
1
STP308-2
0
LINE
8
STP308
10
0.0000
20
75.2500
30
0.0
11
6.0000
21
75.2500
31
0.0
0
LINE
8
STP308
10
6.0000
20
75.2500
30
0.0
11
6.0000
21
79.5000
31
0.0
0
LINE
8
STP308
10
6.0000
20
79.5000
30
0.0
11
0.0000
21
79.5000
31
0.0
0
LINE
8
STP308
10
0.0000
20
79.5000
30
0.0
11
0.0000
21
75.2500
31
0.0
0
TEXT
8
LABELS
10
0.1500
20
79.0500
30
0.0
40
0.2500
1
STP308-3
0
LINE
8
STP308
10
0.0000
20
70.0000
30
0.0
11
6.0000
21
70.0000
31
0.0
0
LINE
8
STP308
10
6.0000
20
70.0000
30
0.0
11
6.0000
21
74.2500
31
0.0
0
LINE
8
STP308
10
6.0000
20
74.2500
30
0.0
11
0.0000
21
74.2500
31
0.0
0
LINE
8
STP308
10
0.0000
20
74.2500
30
0.0
11
0.0000
21
70.0000
31
0.0
0
TEXT
8
LABELS
10
0.1500
20
73.8000
30
0.0
40
0.2500
1
STP308-4
0
LINE
8
STP308
10
0.0000
20
64.7500
30
0.0
11
6.0000
21
64.7500
31
0.0
0
LINE
8
STP308
10
6.0000
20
64.7500
30
0.0
11
6.0000
21
69.0000
31
0.0
0
LINE
8
STP308
10
6.0000
20
69.0000
30
0.0
11
0.0000
21
69.0000
31
0.0
0
LINE
8
STP308
10
0.0000
20
69.0000
30
0.0
11
0.0000
21
64.7500
31
0.0
0
TEXT
8
LABELS
10
0.1500
20
68.5500
30
0.0
40
0.2500
1
STP308-5
0
LINE
8
STP308
10
42.0000
20
85.7500
30
0.0
11
48.0000
21
85.7500
31
0.0
0
LINE
8
STP308
10
48.0000
20
85.7500
30
0.0
11
48.0000
21
90.0000
31
0.0
0
LINE
8
STP308
10
48.0000
20
90.0000
30
0.0
11
42.0000
21
90.0000
31
0.0
0
LINE
8
STP308
10
42.0000
20
90.0000
30
0.0
11
42.0000
21
85.7500
31
0.0
0
TEXT
8
LABELS
10
42.1500
20
89.5500
30
0.0
40
0.2500
1
STP308-6
0
LINE
8
STP308
10
42.0000
20
80.5000
30
0.0
11
48.0000
21
80.5000
31
0.0
0
LINE
8
STP308
10
48.0000
20
80.5000
30
0.0
11
48.0000
21
84.7500
31
0.0
0
LINE
8
STP308
10
48.0000
20
84.7500
30
0.0
11
42.0000
21
84.7500
31
0.0
0
LINE
8
STP308
10
42.0000
20
84.7500
30
0.0
11
42.0000
21
80.5000
31
0.0
0
TEXT
8
LABELS
10
42.1500
20
84.3000
30
0.0
40
0.2500
1
STP308-7
0
LINE
8
STP308
10
42.0000
20
75.2500
30
0.0
11
48.0000
21
75.2500
31
0.0
0
LINE
8
STP308
10
48.0000
20
75.2500
30
0.0
11
48.0000
21
79.5000
31
0.0
0
LINE
8
STP308
10
48.0000
20
79.5000
30
0.0
11
42.0000
21
79.5000
31
0.0
0
LINE
8
STP308
10
42.0000
20
79.5000
30
0.0
11
42.0000
21
75.2500
31
0.0
0
TEXT
8
LABELS
10
42.1500
20
79.0500
30
0.0
40
0.2500
1
STP308-8
0
LINE
8
STP308
10
42.0000
20
70.0000
30
0.0
11
48.0000
21
70.0000
31
0.0
0
LINE
8
STP308
10
48.0000
20
70.0000
30
0.0
11
48.0000
21
74.2500
31
0.0
0
LINE
8
STP308
10
48.0000
20
74.2500
30
0.0
11
42.0000
21
74.2500
31
0.0
0
LINE
8
STP308
10
42.0000
20
74.2500
30
0.0
11
42.0000
21
70.0000
31
0.0
0
TEXT
8
LABELS
10
42.1500
20
73.8000
30
0.0
40
0.2500
1
STP308-9
0
LINE
8
STP308
10
42.0000
20
64.7500
30
0.0
11
48.0000
21
64.7500
31
0.0
0
LINE
8
STP308
10
48.0000
20
64.7500
30
0.0
11
48.0000
21
69.0000
31
0.0
0
LINE
8
STP308
10
48.0000
20
69.0000
30
0.0
11
42.0000
21
69.0000
31
0.0
0
LINE
8
STP308
10
42.0000
20
69.0000
30
0.0
11
42.0000
21
64.7500
31
0.0
0
TEXT
8
LABELS
10
42.1500
20
68.5500
30
0.0
40
0.2500
1
STP308-10
0
LINE
8
STP318
10
0.0000
20
21.0000
30
0.0
11
4.0000
21
21.0000
31
0.0
0
LINE
8
STP318
10
4.0000
20
21.0000
30
0.0
11
4.0000
21
27.0000
31
0.0
0
LINE
8
STP318
10
4.0000
20
27.0000
30
0.0
11
0.0000
21
27.0000
31
0.0
0
LINE
8
STP318
10
0.0000
20
27.0000
30
0.0
11
0.0000
21
21.0000
31
0.0
0
TEXT
8
LABELS
10
0.1500
20
26.5500
30
0.0
40
0.2500
1
STP318-1
0
LINE
8
STP318
10
0.0000
20
14.0000
30
0.0
11
4.0000
21
14.0000
31
0.0
0
LINE
8
STP318
10
4.0000
20
14.0000
30
0.0
11
4.0000
21
20.0000
31
0.0
0
LINE
8
STP318
10
4.0000
20
20.0000
30
0.0
11
0.0000
21
20.0000
31
0.0
0
LINE
8
STP318
10
0.0000
20
20.0000
30
0.0
11
0.0000
21
14.0000
31
0.0
0
TEXT
8
LABELS
10
0.1500
20
19.5500
30
0.0
40
0.2500
1
STP318-2
0
LINE
8
STP318
10
0.0000
20
7.0000
30
0.0
11
4.0000
21
7.0000
31
0.0
0
LINE
8
STP318
10
4.0000
20
7.0000
30
0.0
11
4.0000
21
13.0000
31
0.0
0
LINE
8
STP318
10
4.0000
20
13.0000
30
0.0
11
0.0000
21
13.0000
31
0.0
0
LINE
8
STP318
10
0.0000
20
13.0000
30
0.0
11
0.0000
21
7.0000
31
0.0
0
TEXT
8
LABELS
10
0.1500
20
12.5500
30
0.0
40
0.2500
1
STP318-3
0
LINE
8
STP318
10
44.0000
20
21.0000
30
0.0
11
48.0000
21
21.0000
31
0.0
0
LINE
8
STP318
10
48.0000
20
21.0000
30
0.0
11
48.0000
21
27.0000
31
0.0
0
LINE
8
STP318
10
48.0000
20
27.0000
30
0.0
11
44.0000
21
27.0000
31
0.0
0
LINE
8
STP318
10
44.0000
20
27.0000
30
0.0
11
44.0000
21
21.0000
31
0.0
0
TEXT
8
LABELS
10
44.1500
20
26.5500
30
0.0
40
0.2500
1
STP318-4
0
LINE
8
STP318
10
44.0000
20
14.0000
30
0.0
11
48.0000
21
14.0000
31
0.0
0
LINE
8
STP318
10
48.0000
20
14.0000
30
0.0
11
48.0000
21
20.0000
31
0.0
0
LINE
8
STP318
10
48.0000
20
20.0000
30
0.0
11
44.0000
21
20.0000
31
0.0
0
LINE
8
STP318
10
44.0000
20
20.0000
30
0.0
11
44.0000
21
14.0000
31
0.0
0
TEXT
8
LABELS
10
44.1500
20
19.5500
30
0.0
40
0.2500
1
STP318-5
0
LINE
8
STP318
10
44.0000
20
7.0000
30
0.0
11
48.0000
21
7.0000
31
0.0
0
LINE
8
STP318
10
48.0000
20
7.0000
30
0.0
11
48.0000
21
13.0000
31
0.0
0
LINE
8
STP318
10
48.0000
20
13.0000
30
0.0
11
44.0000
21
13.0000
31
0.0
0
LINE
8
STP318
10
44.0000
20
13.0000
30
0.0
11
44.0000
21
7.0000
31
0.0
0
TEXT
8
LABELS
10
44.1500
20
12.5500
30
0.0
40
0.2500
1
STP318-6
0
LINE
8
FORMED_EDGE
10
0.0000
20
96.0000
30
0.0
11
0.0000
21
0.0000
31
0.0
0
LINE
8
FORMED_EDGE
10
48.0000
20
96.0000
30
0.0
11
48.0000
21
0.0000
31
0.0
0
LINE
8
MD_ARROW
10
24.0000
20
8.0000
30
0.0
11
24.0000
21
88.0000
31
0.0
0
LINE
8
MD_ARROW
10
24.0000
20
88.0000
30
0.0
11
22.5000
21
85.0000
31
0.0
0
LINE
8
MD_ARROW
10
24.0000
20
88.0000
30
0.0
11
25.5000
21
85.0000
31
0.0
0
LINE
8
STP308_SCORE
10
0.0000
20
88.7500
30
0.0
11
6.0000
21
88.7500
31
0.0
0
LINE
8
STP308_SCORE
10
0.0000
20
83.5000
30
0.0
11
6.0000
21
83.5000
31
0.0
0
LINE
8
STP308_SCORE
10
0.0000
20
78.2500
30
0.0
11
6.0000
21
78.2500
31
0.0
0
LINE
8
STP308_SCORE
10
0.0000
20
73.0000
30
0.0
11
6.0000
21
73.0000
31
0.0
0
LINE
8
STP308_SCORE
10
0.0000
20
67.7500
30
0.0
11
6.0000
21
67.7500
31
0.0
0
LINE
8
STP308_SCORE
10
42.0000
20
88.7500
30
0.0
11
48.0000
21
88.7500
31
0.0
0
LINE
8
STP308_SCORE
10
42.0000
20
83.5000
30
0.0
11
48.0000
21
83.5000
31
0.0
0
LINE
8
STP308_SCORE
10
42.0000
20
78.2500
30
0.0
11
48.0000
21
78.2500
31
0.0
0
LINE
8
STP308_SCORE
10
42.0000
20
73.0000
30
0.0
11
48.0000
21
73.0000
31
0.0
0
LINE
8
STP308_SCORE
10
42.0000
20
67.7500
30
0.0
11
48.0000
21
67.7500
31
0.0
0
TEXT
8
LABELS
10
1.0000
20
93.0000
30
0.0
40
0.3000
1
FORMED EDGE
0
TEXT
8
LABELS
10
41.0000
20
93.0000
30
0.0
40
0.3000
1
FORMED EDGE
0
TEXT
8
MD_ARROW
10
25.0000
20
86.0000
30
0.0
40
0.4500
1
MD
0
TEXT
8
LABELS
10
1.0000
20
1.0000
30
0.0
40
0.3500
1
board1
0
ENDSEC
0
EOF